<?xml version="1.0" encoding="iso-8859-1"?>
<!-- Generator: Adobe Illustrator 19.0.0, SVG Export Plug-In . SVG Version: 6.00 Build 0)  -->
<svg version="1.1" id="Capa_1" xmlns="http://www.w3.org/2000/svg" xmlns:xlink="http://www.w3.org/1999/xlink" x="0px" y="0px"
	 viewBox="0 0 485.5 485.5" style="enable-background:new 0 0 485.5 485.5;" xml:space="preserve">
<g>
	<g>
		<path d="M138.2,198.6c0,47.6,38.6,86.2,86.2,86.2s86.2-38.6,86.2-86.2s-38.6-86.2-86.2-86.2C176.8,112.4,138.2,151,138.2,198.6z
			 M232,147c0,5.2,0,5.3,5.2,6.1c4,0.6,7.8,1.8,11.5,3.4c2,0.9,2.8,2.3,2.2,4.5c-0.9,3.2-1.8,6.4-2.8,9.6c-1,3-1.9,3.4-4.8,2
			c-5.8-2.8-11.9-4-18.2-3.6c-1.7,0.1-3.3,0.3-4.9,1c-5.5,2.4-6.4,8.5-1.7,12.3c2.4,1.9,5.1,3.3,7.9,4.5c4.9,2,9.8,4,14.5,6.5
			c14.8,8.2,18.8,26.8,8.4,39.4c-3.8,4.6-8.7,7.7-14.4,9.2c-2.5,0.7-3.6,2-3.5,4.6c0.1,2.5,0,5.1,0,7.6c0,2.3-1.2,3.5-3.4,3.5
			c-2.7,0.1-5.5,0.1-8.2,0c-2.4,0-3.5-1.4-3.6-3.8c0-1.9,0-3.7-0.1-5.6c0-4.1-0.2-4.3-4.1-4.9c-5.1-0.8-10-2-14.6-4.2
			c-3.6-1.8-4-2.7-3-6.5c0.8-2.8,1.6-5.7,2.4-8.5c1-3.3,1.9-3.7,4.9-2.1c5.1,2.7,10.6,4.2,16.2,4.9c3.7,0.5,7.3,0.1,10.7-1.4
			c6.3-2.8,7.3-10.1,2-14.5c-1.8-1.5-3.9-2.6-6.1-3.6c-5.6-2.4-11.4-4.3-16.6-7.5c-8.5-5.1-13.9-12.1-13.3-22.5
			c0.7-11.7,7.3-19,18.1-22.9c4.4-1.6,4.5-1.5,4.5-6.2c0-1.6,0-3.1,0-4.7c0.1-3.5,0.7-4.1,4.2-4.2c1.1,0,2.2,0,3.2,0
			C232,139.6,232,139.6,232,147z"/>
		<circle cx="349.9" cy="203" r="23.9"/>
		<circle cx="99" cy="203" r="23.9"/>
		<path d="M414.9,58H39.4C17.7,58,0,75.7,0,97.4V300c0,21.7,17.7,39.4,39.4,39.4h273.1v-12.9c0-7.7,2.3-14.8,6.2-20.7H83
			c0.2-1.6,0.3-3.3,0.3-4.9c0-22-17.8-39.9-39.9-39.9c-3.4,0-6.7,0.4-9.9,1.2V139.9c3.2,0.8,6.5,1.2,9.9,1.2
			c22,0,39.9-17.8,39.9-39.9c0-3.4-0.4-6.6-1.2-9.7h292.4c-0.4,2.4-0.7,4.8-0.7,7.3c0,22,17.8,39.9,39.9,39.9c2.4,0,4.7-0.2,7-0.6
			v71.6c12.3,1.5,23.7,5.7,33.6,12.1V97.3C454.3,75.6,436.6,58,414.9,58z"/>
		<path d="M410.7,231.4c-32.5,0-58.9,26.4-58.9,58.9v20.5h-1.4c-8.6,0-15.5,7-15.5,15.5V412c0,8.6,7,15.5,15.5,15.5H470
			c8.6,0,15.5-7,15.5-15.5v-85.7c0-8.6-7-15.5-15.5-15.5h-0.4v-20.5C469.7,257.9,443.2,231.4,410.7,231.4z M419.5,373.1
			c-1.2,0.9-1.5,1.7-1.5,3.1c0,6.3,0,12.6,0,18.9l0,0c0.1,2.6-1.2,5.2-3.5,6.4c-5.5,2.8-11-1.1-11-6.3l0,0c0-6.3,0-12.6,0-18.9
			c0-1.3-0.3-2.1-1.4-3c-5.7-4.2-7.6-11.4-4.7-17.7c2.8-6.2,9.5-9.7,15.9-8.5c7.1,1.4,12,7.2,12.1,14.2
			C425.4,366.2,423.4,370.2,419.5,373.1z M443.9,310.8h-66.3v-20.5c0-18.3,14.9-33.1,33.1-33.1c18.3,0,33.1,14.9,33.1,33.1v20.5
			H443.9z"/>
	</g>
</g>
<g>
</g>
<g>
</g>
<g>
</g>
<g>
</g>
<g>
</g>
<g>
</g>
<g>
</g>
<g>
</g>
<g>
</g>
<g>
</g>
<g>
</g>
<g>
</g>
<g>
</g>
<g>
</g>
<g>
</g>
</svg>
